<svg id="Layer_1" data-name="Layer 1" xmlns="http://www.w3.org/2000/svg" viewBox="0 0 210.08 71.3"><defs><style>.cls-1{fill:#fff;}</style></defs><title>logo</title><rect class="cls-1" x="82.08" y="9.2" width="9.2" height="26.83"/><rect class="cls-1" x="292.22" y="403.41" width="9.2" height="26.83" transform="translate(521.52 -265.39) rotate(90)"/><rect class="cls-1" x="292.22" y="385.77" width="9.2" height="26.83" transform="translate(503.88 -283.03) rotate(90)"/><rect class="cls-1" x="112.08" y="9.2" width="9.2" height="26.83"/><rect class="cls-1" x="41.08" y="44.47" width="9.2" height="26.83"/><rect class="cls-1" x="30" y="44.47" width="9.2" height="26.83"/><rect class="cls-1" x="252.72" y="437.18" width="9.2" height="29.83" transform="translate(517.29 -190.62) rotate(90)"/><rect class="cls-1" x="252.72" y="419.54" width="9.2" height="29.83" transform="translate(499.66 -208.25) rotate(90)"/><rect class="cls-1" y="26.83" width="9.2" height="26.83"/><rect class="cls-1" x="207.04" y="432.58" width="9.2" height="39.03" transform="translate(471.61 -144.93) rotate(90)"/><rect class="cls-1" x="211.64" y="419.54" width="9.2" height="29.83" transform="translate(458.57 -167.17) rotate(90)"/><rect class="cls-1" x="209.97" y="400.07" width="9.2" height="33.5" transform="translate(439.27 -183.14) rotate(90)"/><rect class="cls-1" x="246.63" y="398.81" width="9.2" height="36.03" transform="translate(475.92 -219.79) rotate(90)"/><rect class="cls-1" x="254.39" y="376.57" width="9.2" height="26.83" transform="translate(456.85 -254.39) rotate(90)"/><rect class="cls-1" x="71.08" width="9.2" height="36.03"/><rect class="cls-1" x="123.08" y="9.2" width="9.2" height="26.83"/><rect class="cls-1" x="333.22" y="385.77" width="9.2" height="26.83" transform="translate(544.88 -324.03) rotate(90)"/><rect class="cls-1" x="153.08" y="9.2" width="9.2" height="26.83"/><rect class="cls-1" x="81.89" y="44.47" width="9.2" height="26.83"/><rect class="cls-1" x="292.03" y="429.86" width="9.2" height="26.83" transform="translate(547.78 -238.74) rotate(90)"/><rect class="cls-1" x="111.89" y="44.47" width="9.2" height="26.83"/><rect class="cls-1" x="122.89" y="44.47" width="9.2" height="26.83"/><rect class="cls-1" x="333.03" y="421.04" width="9.2" height="26.83" transform="translate(579.96 -288.56) rotate(90)"/><rect class="cls-1" x="333.03" y="438.68" width="9.2" height="26.83" transform="translate(597.6 -270.92) rotate(90)"/><rect class="cls-1" x="152.89" y="44.47" width="9.2" height="26.83"/><rect class="cls-1" x="163.89" y="44.47" width="9.2" height="26.83"/><rect class="cls-1" x="182.39" y="44.47" width="9.2" height="26.83"/><rect class="cls-1" x="374.91" y="437.8" width="9.2" height="28.6" transform="translate(639.48 -312.8) rotate(90)"/><rect class="cls-1" x="200.89" y="44.47" width="9.2" height="26.83"/></svg>